<svg width="120" height="26" viewBox="0 0 120 26" fill="none" xmlns="http://www.w3.org/2000/svg">
<path d="M12.312 16.896C12.312 15.048 11.04 13.896 8.544 13.416L6.072 12.96C4.92 12.744 4.392 12.432 4.392 11.664C4.392 10.848 5.208 10.392 6.432 10.392C7.848 10.392 8.784 11.16 8.904 12.408H12.096C11.856 9.648 9.648 7.944 6.432 7.944C3.24 7.944 1.2 9.6 1.2 11.976C1.2 13.968 2.592 15.24 4.896 15.648L7.2 16.08C8.424 16.32 8.952 16.656 8.952 17.472C8.952 18.384 7.968 18.792 6.672 18.792C5.016 18.792 3.888 17.952 3.864 16.632H0.672C0.936 19.488 2.976 21.24 6.624 21.24C10.272 21.24 12.312 19.584 12.312 16.896ZM23.7734 21H27.0854L30.7574 8.184H27.4694L25.3094 16.296L23.0294 8.184H19.7414L17.3894 16.296L15.2054 8.184H11.9654L15.6134 21H18.9494L21.3494 12.672L23.7734 21ZM38.62 21H41.332V12.936C41.332 9.792 39.364 7.944 36.004 7.944C32.908 7.944 30.772 9.864 30.58 12.816H33.58C33.7 11.376 34.564 10.536 36.004 10.536C37.396 10.536 38.212 11.376 38.212 12.816V13.584C37.42 13.488 36.796 13.44 36.076 13.44C32.332 13.44 30.316 14.784 30.316 17.28C30.316 19.68 32.092 21.24 34.756 21.24C36.508 21.24 37.78 20.616 38.62 19.416V21ZM33.46 17.184C33.46 16.032 34.396 15.432 36.292 15.432C36.868 15.432 37.42 15.48 38.212 15.6V16.512C38.212 18 37.18 18.936 35.476 18.936C34.228 18.936 33.46 18.264 33.46 17.184ZM55.9988 14.592C55.9988 10.824 53.7668 7.944 50.3108 7.944C48.6788 7.944 47.2628 8.688 46.2788 10.056V8.184H43.2068V25.632H46.5428V19.344C47.5028 20.592 48.7988 21.24 50.3108 21.24C53.7668 21.24 55.9988 18.384 55.9988 14.592ZM52.5668 14.592C52.5668 17.04 51.1988 18.264 49.5668 18.264C47.9348 18.264 46.5668 17.016 46.5668 14.592C46.5668 12.168 47.9348 10.896 49.5668 10.896C51.1988 10.896 52.5668 12.192 52.5668 14.592ZM61.0004 5.208C61.0004 4.032 60.0884 3.192 58.7684 3.192C57.4724 3.192 56.5604 4.032 56.5604 5.208C56.5604 6.336 57.4724 7.176 58.7684 7.176C60.0884 7.176 61.0004 6.336 61.0004 5.208ZM60.4724 21V8.184H57.1364V21H60.4724ZM66.9771 21V11.04H70.3131V8.184H66.9771V7.56C66.9771 6.672 67.5771 6.312 68.4891 6.312C68.9211 6.312 69.4011 6.384 69.7611 6.528V3.888C69.2091 3.648 68.5131 3.504 67.6971 3.504C65.0331 3.504 63.6651 4.944 63.6651 7.488V8.184H61.0731V11.04H63.6651V21H66.9771ZM82.7586 8.184H79.4226L76.4946 16.968L73.2786 8.184H69.6786L74.7186 20.856L72.8946 25.632H76.5186L82.7586 8.184Z" fill="white"/>
<path d="M114 0L108 6.13333H112.5V16.8667C112.5 18.561 111.157 19.9333 109.5 19.9333C107.843 19.9333 106.5 18.561 106.5 16.8667V6.13333C106.5 2.75233 103.807 0 100.5 0C97.1925 0 94.5 2.75233 94.5 6.13333V16.8667H90L96 23L102 16.8667H97.5V6.13333C97.5 4.439 98.8425 3.06667 100.5 3.06667C102.158 3.06667 103.5 4.439 103.5 6.13333V16.8667C103.5 20.2477 106.193 23 109.5 23C112.807 23 115.5 20.2477 115.5 16.8667V6.13333H120L114 0Z" fill="url(#paint0_linear_0_1)"/>
<defs>
<linearGradient id="paint0_linear_0_1" x1="90" y1="11.5" x2="120" y2="11.5" gradientUnits="userSpaceOnUse">
<stop stop-color="#7AEF70"/>
<stop offset="0.484375" stop-color="#FCB471"/>
<stop offset="1" stop-color="#EF68F2"/>
</linearGradient>
</defs>
</svg>