<svg width="148" height="31" viewBox="0 0 148 31" fill="none" xmlns="http://www.w3.org/2000/svg">
<g clip-path="url(#clip0_19_6892)">
<path d="M26.1077 9.27233C25.4693 8.89178 24.6395 8.89178 23.9373 9.27233L18.9583 12.1898L15.5752 14.0926L10.5962 17.0102C9.9579 17.3907 9.1281 17.3907 8.42594 17.0102L4.4683 14.7269C3.82997 14.3464 3.38315 13.6487 3.38315 12.8875V8.38437C3.38315 7.62327 3.76614 6.92561 4.4683 6.54506L8.36211 4.32518C9.00043 3.94463 9.83028 3.94463 10.5324 4.32518L14.4263 6.54506C15.0646 6.92561 15.5114 7.62327 15.5114 8.38437V11.3019L18.8945 9.33575V6.4182C18.8945 5.6571 18.5115 4.95943 17.8094 4.57888L10.5962 0.392834C9.9579 0.0122844 9.1281 0.0122844 8.42594 0.392834L1.08516 4.57888C0.382997 4.95943 0 5.6571 0 6.4182V14.8537C0 15.6148 0.382997 16.3125 1.08516 16.693L8.42594 20.879C9.06427 21.2597 9.89409 21.2597 10.5962 20.879L15.5752 18.0249L18.9583 16.0588L23.9373 13.2047C24.5757 12.8241 25.4055 12.8241 26.1077 13.2047L30.0014 15.4246C30.6397 15.8051 31.0866 16.5028 31.0866 17.2639V21.767C31.0866 22.5281 30.7036 23.2258 30.0014 23.6063L26.1077 25.8897C25.4693 26.2702 24.6395 26.2702 23.9373 25.8897L20.0435 23.6698C19.4052 23.2893 18.9583 22.5916 18.9583 21.8304V18.9129L15.5752 20.879V23.7966C15.5752 24.5577 15.9582 25.2554 16.6604 25.6359L24.0012 29.822C24.6395 30.2026 25.4693 30.2026 26.1715 29.822L33.5122 25.6359C34.1506 25.2554 34.5974 24.5577 34.5974 23.7966V15.3611C34.5974 14.6 34.2144 13.9024 33.5122 13.5218L26.1077 9.27233Z" fill="#8247E5"/>
<path d="M48.0764 27.4061V20.4029C48.8548 21.3592 50.2675 21.8936 51.9109 21.8936C56.0914 21.8936 58.9169 18.9967 58.9169 14.5811C58.9169 10.1654 56.3221 7.26855 52.2569 7.26855C50.3829 7.26855 48.9413 7.94355 48.0764 9.04043V7.49355H44.0688V27.4061H48.0764ZM51.4208 18.5186C49.2585 18.5186 47.8457 16.9436 47.8457 14.5811C47.8457 12.1904 49.2585 10.6154 51.4208 10.6154C53.5255 10.6154 54.967 12.1904 54.967 14.5811C54.967 16.9436 53.5255 18.5186 51.4208 18.5186Z" fill="white"/>
<path d="M68.017 21.8936C72.4858 21.8936 75.6861 18.7998 75.6861 14.5811C75.6861 10.3623 72.4858 7.26855 68.017 7.26855C63.5482 7.26855 60.3479 10.3623 60.3479 14.5811C60.3479 18.7998 63.5482 21.8936 68.017 21.8936ZM68.017 18.5186C65.8546 18.5186 64.3843 16.9154 64.3843 14.5811C64.3843 12.2186 65.8546 10.6154 68.017 10.6154C70.1793 10.6154 71.6497 12.2186 71.6497 14.5811C71.6497 16.9154 70.1793 18.5186 68.017 18.5186Z" fill="white"/>
<path d="M82.1164 21.6686V1.33423H78.1089V21.6686H82.1164Z" fill="white"/>
<path d="M94.163 7.49365L91.1357 16.6343L88.0796 7.49365H83.9856L89.2617 21.5562L87.1282 27.4062H90.9627L93.0097 21.6124L98.2854 7.49365H94.163Z" fill="white"/>
<path d="M109.541 8.8998C108.734 7.91543 107.292 7.26855 105.534 7.26855C101.295 7.26855 98.7295 10.1654 98.7295 14.5811C98.7295 18.9967 101.295 21.8936 105.591 21.8936C107.292 21.8936 108.82 21.2748 109.57 20.2342V22.0904C109.57 23.4123 108.676 24.3404 107.465 24.3404H100.777V27.4061H108.1C111.386 27.4061 113.578 25.4654 113.578 22.5123V7.49355H109.541V8.8998ZM106.226 18.5186C104.092 18.5186 102.679 16.9717 102.679 14.5811C102.679 12.1904 104.092 10.6154 106.226 10.6154C108.388 10.6154 109.801 12.1904 109.801 14.5811C109.801 16.9717 108.388 18.5186 106.226 18.5186Z" fill="white"/>
<path d="M123.68 21.8936C128.149 21.8936 131.349 18.7998 131.349 14.5811C131.349 10.3623 128.149 7.26855 123.68 7.26855C119.211 7.26855 116.011 10.3623 116.011 14.5811C116.011 18.7998 119.211 21.8936 123.68 21.8936ZM123.68 18.5186C121.517 18.5186 120.047 16.9154 120.047 14.5811C120.047 12.2186 121.517 10.6154 123.68 10.6154C125.842 10.6154 127.313 12.2186 127.313 14.5811C127.313 16.9154 125.842 18.5186 123.68 18.5186Z" fill="white"/>
<path d="M137.578 21.6686V13.9061C137.578 12.0779 138.817 10.7561 140.576 10.7561C142.248 10.7561 143.373 11.9936 143.373 13.7092V21.6686H147.409V12.8373C147.409 9.57481 145.276 7.26855 141.989 7.26855C139.999 7.26855 138.385 8.08418 137.578 9.46231V7.49355H133.541V21.6686H137.578Z" fill="white"/>
</g>
<defs>
<clipPath id="clip0_19_6892">
<rect width="148" height="30" fill="white" transform="translate(0 0.107422)"/>
</clipPath>
</defs>
</svg>
